PathFileType	4	(X/Y/Z)	C:/Users/beibeiliu/ov580/test_trc\sequence.21_training_dense_left.trc
DataRate	CameraRate	NumFrames	NumMarkers	Units	OrigDataRate	OrigDataStartFrame	OrigNumFrames
120	120	19	19	mm	120	100	397
Frame#	Time	ThumbCMC			ThumbMCP			ThumbIP			ThumbTip			IndexMCP			IndexPIP			IndexTip			MiddleMCP			MiddlePIP			MiddleTip			RingMCP			RingPIP			RingTip			PinkyMCP			PinkyPIP			PinkyTip			BackHand1			BackHand2			BackHand3	
		X0	Y0	Z0	X1	Y1	Z1	X2	Y2	Z2	X3	Y3	Z3	X4	Y4	Z4	X5	Y5	Z5	X6	Y6	Z6	X7	Y7	Z7	X8	Y8	Z8	X9	Y9	Z9	X10	Y10	Z10	X11	Y11	Z11	X12	Y12	Z12	X13	Y13	Z13	X14	Y14	Z14	X15	Y15	Z15	X16	Y16	Z16	X17	Y17	Z17	X18	Y18	Z18	
99	0.825	-193.937	22.0563	20.5919	-172.186	0.211837	17.1124	-173.101	-24.1874	14.673	-189.235	-43.6611	19.416	-190.958	-34.2003	-16.6584	-183.774	-56.5815	-17.9639	-174.72	-80.462	-5.41974	-208.984	-42.9299	-15.0885	-197.195	-70.7647	-13.8686	-187.11	-93.5513	3.97477	-226.646	-48.3262	-7.41185	-216.972	-69.3954	-6.03976	-204.611	-87.1927	5.46897	-240.816	-40.055	5.33464	-236.465	-62.0206	6.19189	-227.19	-80.2263	11.812	-239.255	0.332539	1.7752	-242.841	21.8497	12.9107	-217.965	21.9122	1.95297	
100	0.833333	-188.052	21.9937	26.9057	-166.884	-5.69544	18.4158	-173.222	-28.492	14.8437	-191.161	-48.342	17.7123	-189.834	-33.8336	-16.281	-187.172	-58.2121	-17.7987	-182.654	-85.525	-6.7826	-209.616	-46.8179	-16.6731	-203.867	-69.7934	-16.0313	-194.925	-95.9342	-2.25259	-227.425	-42.2858	-7.89651	-221.828	-66.2719	-7.90212	-214.844	-90.4615	1.27443	-246.007	-38.9183	5.79035	-240.069	-58.4673	4.06828	-235.477	-78.9168	8.30192	-234.461	3.16384	2.56718	-234.28	28.4777	17.402	-207.59	20.4828	4.97885	
101	0.841667	-179.961	14.7832	22.8336	-168.011	-9.70014	19.8768	-177.77	-32.1816	14.7658	-195.479	-49.0132	17.2015	-190.278	-36.7122	-17.3134	-188.82	-60.1235	-18.4369	-189.928	-89.1348	-7.82954	-211.216	-42.3149	-15.3318	-210.076	-72.609	-15.1637	-208.843	-95.8958	-6.29873	-228.675	-41.3764	-8.74608	-229.064	-68.0861	-8.06497	-224.342	-88.0707	-3.1707	-246.947	-34.2419	5.40263	-243.473	-52.9872	3.62134	-243.807	-76.6094	7.6766	-230.016	7.26718	2.74795	-229.737	26.4863	16.495	-201.854	18.5653	1.42242	
102	0.85	-175.276	11.944	22.3108	-166.314	-17.4584	16.8588	-178.852	-36.9599	14.658	-199.984	-50.7848	17.7722	-191.034	-40.3819	-19.9028	-192.375	-63.6855	-19.592	-195.791	-86.1627	-10.4091	-215.789	-43.8194	-16.69	-211.458	-69.0736	-18.368	-214.893	-95.149	-10.1806	-233.426	-38.1666	-6.94838	-231.764	-63.8194	-9.8128	-233.362	-85.4154	-6.72184	-245.258	-28.6454	5.86348	-246.233	-51.673	3.29503	-251.401	-71.8803	6.15135	-228.461	8.34741	3.75323	-221.233	28.9112	16.2422	-201.173	18.3403	2.26053	
103	0.858333	-176.27	8.71129	23.8862	-167.655	-19.1107	18.0452	-179.746	-41.6556	14.1008	-203.998	-53.1228	16.3051	-196.733	-38.6551	-19.6588	-199.707	-64.4617	-20.0475	-200.822	-88.728	-9.75611	-217.622	-40.982	-16.9764	-220.355	-68.2514	-18.6503	-221.859	-90.4615	-13.7093	-232.952	-35.034	-8.44111	-236.336	-57.9643	-11.168	-239.837	-82.3145	-9.11938	-248.124	-25.5821	5.49595	-250.814	-46.5456	3.04839	-257.656	-66.8217	2.60116	-225.57	9.92982	5.59345	-217.847	30.505	17.8148	-198.533	18.1741	4.15587	
104	0.866667	-173.544	8.29114	25.1488	-170.546	-22.5617	16.2244	-184.106	-43.7451	12.2968	-210.914	-52.7482	14.1527	-198.856	-37.5272	-21.1508	-206.323	-64.086	-20.7721	-210.524	-87.904	-8.98057	-222.468	-37.1357	-17.5052	-225.695	-62.4031	-21.7366	-230.106	-91.3035	-15.8016	-238.732	-32.4485	-9.87756	-241.6	-50.7007	-13.2595	-245.785	-75.8464	-13.2595	-248.398	-17.3446	7.44835	-255.521	-37.9861	2.42886	-266.449	-55.1263	1.04928	-225.595	14.4996	5.50858	-216.588	37.5965	21.6234	-192.648	19.1711	6.76268	
105	0.875	-174.501	4.93588	21.935	-171.431	-24.4456	15.7822	-190.925	-40.2053	9.74253	-209.316	-49.8131	12.4521	-200.678	-35.5275	-22.3717	-212.104	-57.601	-23.4011	-215.183	-85.3498	-9.68254	-221.936	-33.0041	-20.5736	-231.218	-55.6081	-24.735	-238.596	-83.6621	-21.619	-238.813	-22.1227	-8.50915	-247.023	-47.5836	-16.2935	-255.394	-70.2204	-17.1706	-253.628	-12.0611	7.7843	-261.747	-28.334	1.54022	-268.068	-45.6805	-3.73677	-219.481	16.9911	6.73029	-209.775	37.7275	22.0783	-196.112	17.6781	5.47657	
106	0.883333	-169.99	2.07951	22.465	-171.808	-28.4459	15.1564	-195.25	-42.1109	7.78474	-221.479	-45.7659	11.0845	-206.803	-34.6795	-25.1687	-216.701	-57.4022	-26.1771	-222.312	-79.1602	-10.7436	-229.585	-29.6497	-22.9879	-238.081	-50.3331	-26.6556	-251.125	-76.9309	-24.0678	-241.541	-17.1973	-9.65034	-254.07	-37.3592	-15.0967	-262.981	-57.5996	-17.6558	-254.472	-8.70812	4.10096	-267.323	-20.1308	1.4275	-279.431	-38.5019	-5.01786	-222.511	18.9595	8.18325	-207.84	39.0421	25.1329	-190.003	19.3927	6.89579	
107	0.891667	-173.172	0.88432	24.3344	-180.796	-29.5187	11.3969	-199.916	-40.1177	7.15561	-226.52	-43.5797	8.48297	-207.694	-28.8742	-25.9031	-222.73	-51.9014	-28.7434	-231.313	-73.6858	-13.4025	-233.235	-24.4226	-23.7093	-244.138	-46.2105	-29.8775	-257.027	-66.1099	-28.2462	-246.244	-12.5279	-10.5683	-259.698	-28.3334	-16.8488	-266.801	-50.8656	-22.3919	-255.294	-0.646593	4.0234	-265.832	-13.4676	-0.90205	-278.657	-28.5745	-8.50955	-222.097	23.3768	9.10404	-205.478	39.3528	26.2905	-190.27	20.796	5.0785	
108	0.9	-173.935	-1.88748	22.6594	-185.67	-28.9887	11.5229	-205.814	-41.1733	4.51702	-229.512	-41.5263	7.20593	-211.779	-26.1269	-28.6372	-228.076	-47.0604	-33.1709	-237.028	-72.6159	-20.9773	-234.306	-19.8585	-27.4674	-250.267	-40.1849	-33.3888	-263.683	-61.8623	-33.6999	-250.202	-7.82479	-14.0212	-262.734	-20.9138	-20.0233	-273.707	-42.2384	-25.1431	-256.726	5.06524	3.77572	-271.745	-6.54264	-3.01949	-280.56	-16.833	-12.2488	-217.997	25.0046	7.31859	-202.892	39.2084	23.0548	-191.603	18.7216	5.57351	
109	0.908333	-178	-5.2901	18.9153	-188.362	-34.4092	8.72885	-211.952	-39.2985	3.61752	-238.209	-35.6732	4.67024	-218.796	-23.0405	-30.7092	-231.709	-39.3877	-37.2686	-244.82	-61.5397	-33.0321	-235.518	-11.2531	-26.2674	-254.556	-30.0339	-37.5388	-272.309	-46.6628	-37.6746	-249.585	-0.0430435	-15.6026	-266.707	-15.4398	-24.3204	-279.277	-28.185	-28.2478	-258.987	12.7191	2.75549	-271.224	0.811455	-6.31653	-287.601	-5.65277	-12.1613	-216.307	28.4524	9.86804	-198.438	40.6177	23.958	-187.633	20.0484	5.48711	
110	0.916667	-176.74	-8.26157	19.5251	-194.802	-35.5981	4.36907	-218.26	-37.5765	-0.905685	-240.076	-29.7811	1.86052	-221.349	-19.5339	-33.1979	-241.045	-34.618	-40.8783	-253.656	-51.9541	-43.1949	-240.392	-7.51	-30.9344	-260.82	-20.0658	-40.3544	-281.491	-39.4811	-45.8893	-249.758	6.26325	-18.0595	-267.96	-4.07994	-26.854	-285.492	-16.2673	-33.1883	-256.985	18.2612	1.01235	-272.668	10.8435	-5.76866	-288.14	4.18643	-12.8905	-216.315	30.2048	8.86591	-198.078	40.1604	24.5672	-187.187	18.197	3.43269	
111	0.925	-180.294	-10.187	16.0822	-194.464	-34.5633	5.41946	-218.029	-38.5098	-3.65132	-243.095	-34.5024	-3.00488	-223.829	-18.224	-35.8933	-241.762	-28.8034	-45.239	-261.209	-46.2282	-49.8887	-241.713	-3.1338	-34.5048	-262.297	-11.249	-42.0647	-286.159	-26.2174	-49.7813	-252.96	12.2395	-17.6167	-271.458	5.35017	-27.594	-288.475	-5.62146	-35.2275	-255.942	25.6097	3.91432	-273.011	21.0213	-3.89509	-294.554	16.243	-13.1956	-216.82	27.5731	2.96159	-195.716	36.5693	22.0151	-189.882	18.1302	4.27663	
112	0.933333	-178.941	-13.2122	14.8826	-198.047	-35.618	0.14747	-220.193	-37.6072	-7.55865	-246.21	-33.9346	-7.36654	-223.771	-16.3851	-38.1563	-242.289	-29.2407	-50.884	-263.29	-41.7971	-58.0618	-242.802	4.13768	-31.8473	-259.582	-6.97429	-46.43	-282.641	-17.1345	-54.8874	-253.598	15.6693	-20.0789	-271.056	10.6677	-29.4081	-288.458	1.17503	-38.2797	-258.539	26.6973	0.229469	-271.184	22.8584	-5.77991	-292.872	19.558	-13.7268	-214.622	30.1863	6.31028	-196.198	34.8146	20.0311	-189.814	16.7045	0.0502528	
113	0.941667	-181.266	-14.8237	10.3278	-196.805	-34.3878	-2.1001	-220.997	-37.8153	-12.6247	-246.955	-31.7525	-13.8003	-222.959	-12.4496	-39.8678	-242.901	-22.4474	-55.364	-260.796	-33.8016	-65.5448	-245.422	7.20078	-37.0566	-258.499	-1.30994	-50.1146	-287.012	-10.8529	-60.4642	-252.266	18.6662	-23.0132	-268.898	13.6463	-32.2474	-291.37	7.92407	-42.2955	-254.859	29.5308	1.1434	-275.089	28.4181	-6.91478	-293.912	26.1761	-14.7895	-212.629	28.2338	1.59045	-195.922	37.2237	22.4261	-187.197	15.5815	1.73185	
114	0.95	-180.428	-11.545	13.0561	-199.527	-31.0433	-8.13667	-221.62	-32.1192	-18.6623	-242.546	-27.6713	-17.6708	-220.024	-7.37241	-44.1721	-238.302	-16.3734	-59.0926	-255.426	-21.9563	-69.0654	-237.239	9.39488	-39.3015	-260.706	4.89142	-54.415	-277.196	-2.06094	-65.6784	-252.068	23.586	-23.2795	-266.314	18.5228	-33.0044	-285.181	13.2573	-44.3572	-250.642	29.962	-0.453089	-268.94	28.9577	-10.141	-288.902	29.6288	-15.7872	-211.325	30.5291	7.37745	-197.949	36.1137	22.2385	-187.321	19.4533	2.55829	
115	0.958333	-181.898	-11.0538	8.66654	-195.524	-29.4589	-8.73495	-219.967	-30.966	-24.2286	-241.38	-24.0621	-24.6574	-215.754	-2.49686	-46.5436	-233.858	-9.14346	-65.0466	-247.334	-15.8897	-77.0535	-236.616	17.0304	-40.4949	-258.001	13.287	-57.1077	-273.62	5.99532	-70.073	-244.039	24.6613	-23.8414	-267.003	22.772	-39.5757	-283.056	16.8709	-49.1744	-252.625	33.5637	-3.17517	-268.825	32.5159	-9.21964	-286.558	30.5932	-22.5256	-211.583	31.5974	5.00318	-193.63	34.262	22.3007	-184.539	15.7024	-0.56158	
116	0.966667	-179.246	-11.2877	8.52741	-196.983	-26.4889	-16.878	-215.683	-27.9785	-27.9429	-239.59	-17.091	-28.6595	-213.925	3.02359	-47.8329	-228.426	0.325015	-65.1109	-243.694	-6.84893	-83.533	-231.612	22.6486	-41.1355	-249.368	20.096	-62.0394	-272.21	16.9015	-74.4155	-242.67	30.0518	-24.3831	-262.101	28.1626	-42.1045	-280.146	25.6537	-51.8269	-249.967	34.5685	-6.34676	-265.76	36.4709	-11.3731	-283.73	37.1577	-22.7016	-206.719	32.8126	2.03118	-193.874	37.0463	23.9721	-181.527	18.9832	0.876572	
117	0.975	-178.638	-11.437	5.47754	-194.607	-25.9832	-22.2046	-213.113	-23.0516	-32.3999	-236.423	-14.3315	-34.3723	-212.394	9.96197	-52.6397	-223.754	5.38863	-72.1799	-238.847	2.17446	-89.6196	-228.258	28.0773	-43.0899	-246.081	29.2014	-61.2023	-265.982	27.0094	-77.2345	-239.626	32.5472	-29.2599	-255.248	33.7231	-42.8421	-276.627	31.2192	-56.789	-247.907	37.4795	-4.00471	-265.357	38.7686	-15.2951	-281.324	40.7082	-29.1106	-208.755	34.6887	1.29045	-190.555	32.0462	25.6767	-185.285	22.482	0.429397	
